<svg version="1.1" id="Layer_1" xmlns="http://www.w3.org/2000/svg" xmlns:xlink="http://www.w3.org/1999/xlink" x="0px" y="0px"
	 width="100%" viewBox="0 0 152 400" enable-background="new 0 0 152 400" xml:space="preserve">
<path fill="#010101" opacity="1.000000" stroke="none" 
	d="
M1.000000,159.000000 
	C1.000000,106.000008 1.000000,53.500011 1.000000,1.000014 
	C51.666656,1.000009 102.333313,1.000009 152.999969,1.000005 
	C152.999985,134.333298 152.999985,267.666595 153.000000,400.999939 
	C102.333366,400.999939 51.666737,400.999939 1.000051,400.999969 
	C1.000000,320.500000 1.000000,240.000000 1.000000,159.000000 
M127.074669,199.251328 
	C127.727783,197.506119 128.380905,195.760910 129.385620,193.340302 
	C129.677841,188.751862 130.742126,184.057236 130.128128,179.593445 
	C127.523758,160.659195 124.698418,141.744553 121.378075,122.924316 
	C119.829880,114.148872 117.497345,105.418716 114.531982,97.016869 
	C112.304810,90.706589 107.275162,86.324142 100.536522,84.470039 
	C96.030792,83.230324 91.500755,82.078934 87.312645,80.236832 
	C96.032043,78.378525 100.206909,72.976913 99.814034,63.268906 
	C99.611740,62.827015 99.409454,62.385124 99.800537,61.319317 
	C99.485718,58.550594 99.170898,55.781868 98.947456,52.317310 
	C98.527023,51.536156 98.106598,50.755001 97.975983,49.186932 
	C97.548698,39.431438 96.939194,38.846298 87.217041,39.029499 
	C84.721680,39.076523 82.212677,39.059776 79.735909,39.319714 
	C68.475586,40.501522 68.478920,40.533302 68.679283,52.551735 
	C68.361404,53.330925 68.043533,54.110115 67.050148,55.123150 
	C66.263382,56.395138 65.476608,57.667122 64.689842,58.939110 
	C64.477577,58.503426 64.265320,58.067741 64.053055,57.632061 
	C62.073776,58.608070 59.269665,59.081268 58.299667,60.672520 
	C56.655926,63.369026 58.734406,64.799957 61.190712,66.702332 
	C64.401382,69.188957 66.277512,73.398720 68.097710,77.108452 
	C61.903366,83.841370 53.279625,85.791092 45.170822,88.755524 
	C44.547256,88.983498 43.923523,89.214630 43.314415,89.477951 
	C38.263577,91.661446 35.142696,95.171288 33.877216,100.799362 
	C29.487804,120.320702 28.901228,140.145584 30.169254,159.890732 
	C30.992834,172.715103 34.319916,185.377762 36.506081,198.116180 
	C37.145771,201.843536 39.265942,203.525986 42.694244,203.720016 
	C38.595024,203.146576 37.353912,205.864304 36.771099,209.070175 
	C35.788246,214.476562 39.330452,222.040390 43.144630,225.007248 
	C38.803715,224.510605 39.800224,227.973099 39.853317,230.013535 
	C40.343048,248.834824 35.863987,266.799133 31.538994,284.929962 
	C27.898560,300.191040 25.784849,315.845306 23.600601,331.410431 
	C22.733225,337.591400 22.972099,344.132690 27.375256,349.830750 
	C25.604536,354.247986 24.090807,358.791290 22.001024,363.052032 
	C19.090494,368.986115 20.974678,374.404449 27.320425,375.757446 
	C32.647415,376.893311 38.191730,377.982483 43.564449,377.693054 
	C50.811485,377.302643 53.747997,376.264008 52.774567,371.524872 
	C51.180832,363.765930 47.325085,356.471405 44.404713,348.988281 
	C44.375378,348.913116 44.092209,348.936981 44.012894,348.229980 
	C48.663647,339.884308 54.742226,332.002136 57.636520,323.086273 
	C62.181931,309.084137 64.614388,294.392731 67.866203,279.976196 
	C68.780518,275.922668 69.338409,271.789307 70.229378,267.729767 
	C71.075729,263.873535 72.143951,260.066010 73.465485,254.853027 
	C77.786507,269.297882 75.505714,282.128235 73.600952,294.941711 
	C71.350990,310.077271 70.307587,325.057739 77.031349,339.534088 
	C80.439171,346.871155 80.256592,346.955963 87.943886,346.739990 
	C85.969391,347.217834 83.965157,347.600769 82.030891,348.206940 
	C80.747719,348.609100 79.061096,348.997498 78.420746,349.964966 
	C74.953072,355.204193 78.214722,363.210999 84.291237,364.865601 
	C85.680298,365.243835 87.060059,365.658966 88.434349,366.088287 
	C100.851616,369.967560 113.525856,370.871155 126.327148,368.827576 
	C130.923462,368.093842 132.530075,364.538635 129.875473,360.677399 
	C127.484230,357.199219 124.341400,353.996613 120.914619,351.526184 
	C115.320892,347.493622 109.252640,344.111420 103.303040,340.592743 
	C102.717857,340.246704 101.565292,340.859985 100.633522,340.180481 
	C102.394020,328.531555 104.848091,316.937500 105.775185,305.222595 
	C107.913109,278.207428 108.840073,251.083923 114.915443,224.517944 
	C116.112373,219.284088 117.040977,213.988861 118.814552,208.901276 
	C118.814552,211.709747 118.814552,214.518204 118.814552,217.320175 
	C124.765976,215.719498 129.805298,206.004349 127.630577,200.216354 
	C127.557907,200.022949 127.032990,199.999466 127.074669,199.251328 
z"/>
<path fill="#8DA4DB" opacity="1.000000" stroke="none" 
	d="
M27.909273,349.209503 
	C22.972099,344.132690 22.733225,337.591400 23.600601,331.410431 
	C25.784849,315.845306 27.898560,300.191040 31.538994,284.929962 
	C35.863987,266.799133 40.343048,248.834824 39.853317,230.013535 
	C39.800224,227.973099 38.803715,224.510605 44.026367,224.974548 
	C46.889359,224.964462 48.884480,224.845779 50.849030,225.038589 
	C55.184715,225.464096 57.491283,224.028030 57.035969,219.255234 
	C56.907124,217.904572 57.147015,216.018478 58.002728,215.163879 
	C61.108650,212.061859 59.864876,209.287231 57.875584,206.445908 
	C56.584496,204.601837 55.174500,202.841034 53.917309,201.174820 
	C50.357731,201.783173 46.703468,202.407715 43.049206,203.032257 
	C39.265942,203.525986 37.145771,201.843536 36.506081,198.116180 
	C34.319916,185.377762 30.992834,172.715103 30.169254,159.890732 
	C28.901228,140.145584 29.487804,120.320702 33.877216,100.799362 
	C35.142696,95.171288 38.263577,91.661446 43.314415,89.477951 
	C43.923523,89.214630 44.547256,88.983498 45.170822,88.755524 
	C53.279625,85.791092 61.903366,83.841370 68.775864,77.143692 
	C75.296547,78.415298 81.139076,79.651657 86.981598,80.888016 
	C91.500755,82.078934 96.030792,83.230324 100.536522,84.470039 
	C107.275162,86.324142 112.304810,90.706589 114.531982,97.016869 
	C117.497345,105.418716 119.829880,114.148872 121.378075,122.924316 
	C124.698418,141.744553 127.523758,160.659195 130.128128,179.593445 
	C130.742126,184.057236 129.677841,188.751862 128.838196,193.727448 
	C118.652840,198.136948 117.230476,197.195633 117.050369,186.675949 
	C117.047585,186.513290 117.042084,186.350647 117.225189,186.025299 
	C117.689384,185.667023 117.901199,185.416473 118.374138,185.094513 
	C119.259132,184.772888 119.817955,184.467682 120.603226,184.157211 
	C120.829681,184.151932 121.278679,184.091690 121.591873,183.976105 
	C122.132095,182.950912 122.359123,182.041290 122.695648,180.972549 
	C123.041176,180.149246 123.277206,179.485077 123.513245,178.820908 
	C123.287689,178.664352 123.062141,178.507782 122.836594,178.351212 
	C121.887703,179.144897 120.938820,179.938583 119.639297,180.791931 
	C118.512146,181.856537 117.735641,182.861481 116.605026,183.770935 
	C115.883896,182.279587 115.145836,180.866959 115.208122,179.490540 
	C115.738411,167.771713 116.771225,156.063370 116.899277,144.343643 
	C116.965698,138.265137 115.508148,132.169998 114.739059,126.082367 
	C114.224525,126.124062 113.709991,126.165756 113.195457,126.207451 
	C114.672844,145.773392 117.946823,165.436096 111.925041,184.598190 
	C111.367638,184.693756 110.810234,184.789307 110.252823,184.884872 
	C111.489548,186.002289 112.726265,187.119705 114.050621,188.579742 
	C114.764717,192.700989 115.295013,196.499344 116.063179,200.248962 
	C116.387436,201.831757 117.212807,203.311890 117.865639,205.224457 
	C117.978355,206.647461 118.035843,207.684708 118.093330,208.721939 
	C117.040977,213.988861 116.112373,219.284088 114.915443,224.517944 
	C108.840073,251.083923 107.913109,278.207428 105.775185,305.222595 
	C104.848091,316.937500 102.394020,328.531555 100.296753,340.695740 
	C95.970436,342.770172 91.980896,344.329315 87.991364,345.888458 
	C80.256592,346.955963 80.439171,346.871155 77.031349,339.534088 
	C70.307587,325.057739 71.350990,310.077271 73.600952,294.941711 
	C75.505714,282.128235 77.786507,269.297882 73.465485,254.853027 
	C72.143951,260.066010 71.075729,263.873535 70.229378,267.729767 
	C69.338409,271.789307 68.780518,275.922668 67.866203,279.976196 
	C64.614388,294.392731 62.181931,309.084137 57.636520,323.086273 
	C54.742226,332.002136 48.663647,339.884308 43.559216,348.677551 
	C38.040115,349.153229 32.974693,349.181366 27.909273,349.209503 
M62.958061,186.142212 
	C62.958061,186.142212 63.203720,186.142197 63.203720,186.142197 
	C63.203720,186.142197 62.993950,186.241577 62.136955,186.236282 
	C59.439941,185.866699 58.456516,184.572876 58.412369,181.620941 
	C58.186462,166.516205 57.658779,151.415924 57.214863,136.314713 
	C57.188362,135.413177 56.973183,134.517197 56.845802,133.618622 
	C56.093071,146.331284 55.823170,159.019943 56.195347,171.689713 
	C56.414974,179.166245 57.327824,186.571442 54.039375,193.671249 
	C53.781891,194.227142 54.298149,195.141418 54.454800,195.889130 
	C54.818615,195.965317 55.182426,196.041519 55.546242,196.117722 
	C56.713245,192.659851 57.880249,189.201981 59.237408,185.180664 
	C60.500488,185.545013 61.825825,185.927322 62.958061,186.142212 
z"/>
<path fill="#E6B386" opacity="1.000000" stroke="none" 
	d="
M87.147125,80.562424 
	C81.139076,79.651657 75.296547,78.415298 69.090897,77.023056 
	C66.277512,73.398720 64.401382,69.188957 61.190712,66.702332 
	C58.734406,64.799957 56.655926,63.369026 58.299667,60.672520 
	C59.269665,59.081268 62.073776,58.608070 64.053055,57.632061 
	C64.265320,58.067741 64.477577,58.503426 64.689842,58.939110 
	C65.476608,57.667122 66.263382,56.395138 67.787094,55.026405 
	C70.310959,55.555653 72.097885,56.181648 73.161858,56.554379 
	C74.869392,54.944035 76.502098,53.404247 78.959267,51.086933 
	C75.004898,51.446522 71.992538,51.720451 68.980179,51.994385 
	C68.478920,40.533302 68.475586,40.501522 79.735909,39.319714 
	C82.212677,39.059776 84.721680,39.076523 87.217041,39.029499 
	C96.939194,38.846298 97.548698,39.431438 97.498260,49.546898 
	C96.352020,49.885124 95.683502,49.863392 94.905472,49.575165 
	C93.864616,49.525158 92.933273,49.741642 91.624084,49.966156 
	C89.623894,50.325516 88.001541,50.676838 85.375999,51.245403 
	C88.637543,53.279442 90.818924,54.639843 92.697479,56.085655 
	C90.745956,58.549141 89.097267,60.927223 87.510681,63.215736 
	C92.270248,63.594067 92.993904,62.687267 93.299911,55.851524 
	C95.352104,54.806622 97.104088,53.909882 98.856071,53.013145 
	C99.170898,55.781868 99.485718,58.550594 99.279953,61.718113 
	C99.123589,62.748917 99.487801,63.380924 99.852005,64.012932 
	C100.206909,72.976913 96.032043,78.378525 87.147125,80.562424 
M83.510933,55.742844 
	C81.928207,55.742844 80.345490,55.742844 78.762764,55.742844 
	C78.793266,56.325775 78.823776,56.908710 78.854279,57.491642 
	C81.393021,57.923332 83.931763,58.355026 86.470505,58.786716 
	C86.564636,58.540771 86.658768,58.294830 86.752899,58.048889 
	C85.883965,57.376930 85.015038,56.704975 83.510933,55.742844 
M83.336174,63.588207 
	C83.640366,63.033016 83.944565,62.477829 84.175819,62.055775 
	C80.636673,62.437584 77.431091,62.783409 74.225510,63.129230 
	C74.270355,63.577343 74.315201,64.025459 74.360039,64.473572 
	C77.139526,64.254539 79.919006,64.035507 83.336174,63.588207 
M82.277000,50.701733 
	C82.876328,50.951290 83.475655,51.200851 84.074974,51.450409 
	C84.124794,51.034790 84.174606,50.619171 84.224419,50.203556 
	C83.487221,50.236229 82.750031,50.268906 82.277000,50.701733 
M96.892014,56.553734 
	C96.870209,56.808880 96.848396,57.064022 96.826591,57.319172 
	C96.970406,57.319462 97.114220,57.319748 97.258034,57.320034 
	C97.249748,57.064556 97.241455,56.809078 96.892014,56.553734 
z"/>
<path fill="#F6F6F6" opacity="1.000000" stroke="none" 
	d="
M87.967621,346.314209 
	C91.980896,344.329315 95.970436,342.770172 100.318024,341.119507 
	C101.565292,340.859985 102.717857,340.246704 103.303040,340.592743 
	C109.252640,344.111420 115.320892,347.493622 120.914619,351.526184 
	C124.341400,353.996613 127.484230,357.199219 129.875473,360.677399 
	C132.530075,364.538635 130.923462,368.093842 126.327148,368.827576 
	C113.525856,370.871155 100.851616,369.967560 88.434349,366.088287 
	C87.060059,365.658966 85.680298,365.243835 84.291237,364.865601 
	C78.214722,363.210999 74.953072,355.204193 78.420746,349.964966 
	C79.061096,348.997498 80.747719,348.609100 82.030891,348.206940 
	C83.965157,347.600769 85.969391,347.217834 87.967621,346.314209 
z"/>
<path fill="#F9F9F9" opacity="1.000000" stroke="none" 
	d="
M27.642265,349.520142 
	C32.974693,349.181366 38.040115,349.153229 43.516537,349.019836 
	C44.092209,348.936981 44.375378,348.913116 44.404713,348.988281 
	C47.325085,356.471405 51.180832,363.765930 52.774567,371.524872 
	C53.747997,376.264008 50.811485,377.302643 43.564449,377.693054 
	C38.191730,377.982483 32.647415,376.893311 27.320425,375.757446 
	C20.974678,374.404449 19.090494,368.986115 22.001024,363.052032 
	C24.090807,358.791290 25.604536,354.247986 27.642265,349.520142 
z"/>
<path fill="#E5B385" opacity="1.000000" stroke="none" 
	d="
M42.871727,203.376129 
	C46.703468,202.407715 50.357731,201.783173 53.917309,201.174820 
	C55.174500,202.841034 56.584496,204.601837 57.875584,206.445908 
	C59.864876,209.287231 61.108650,212.061859 58.002728,215.163879 
	C57.147015,216.018478 56.907124,217.904572 57.035969,219.255234 
	C57.491283,224.028030 55.184715,225.464096 50.849030,225.038589 
	C48.884480,224.845779 46.889359,224.964462 44.452065,224.888550 
	C39.330452,222.040390 35.788246,214.476562 36.771099,209.070175 
	C37.353912,205.864304 38.595024,203.146576 42.871727,203.376129 
z"/>
<path fill="#DDAC81" opacity="1.000000" stroke="none" 
	d="
M118.453941,208.811615 
	C118.035843,207.684708 117.978355,206.647461 117.931969,204.852051 
	C120.868340,202.694839 123.793610,201.295807 126.718887,199.896759 
	C127.032990,199.999466 127.557907,200.022949 127.630577,200.216354 
	C129.805298,206.004349 124.765976,215.719498 118.814552,217.320175 
	C118.814552,214.518204 118.814552,211.709747 118.453941,208.811615 
z"/>
<path fill="#7A8EBE" opacity="1.000000" stroke="none" 
	d="
M126.896774,199.574036 
	C123.793610,201.295807 120.868340,202.694839 117.876732,204.466293 
	C117.212807,203.311890 116.387436,201.831757 116.063179,200.248962 
	C115.295013,196.499344 114.764717,192.700989 114.351654,188.483002 
	C115.389313,187.425110 116.213585,186.806549 117.037849,186.187988 
	C117.042084,186.350647 117.047585,186.513290 117.050369,186.675949 
	C117.230476,197.195633 118.652840,198.136948 128.662384,194.065125 
	C128.380905,195.760910 127.727783,197.506119 126.896774,199.574036 
z"/>
<path fill="#D6A77C" opacity="1.000000" stroke="none" 
	d="
M95.014992,49.841656 
	C95.683502,49.863392 96.352020,49.885124 97.353348,49.940353 
	C98.106598,50.755001 98.527023,51.536156 98.901764,52.665226 
	C97.104088,53.909882 95.352104,54.806622 93.300064,55.851677 
	C93.000000,56.000000 93.000305,56.000248 93.000305,56.000248 
	C90.818924,54.639843 88.637543,53.279442 85.375999,51.245403 
	C88.001541,50.676838 89.623894,50.325516 91.913025,50.103596 
	C93.385284,50.496372 94.190773,50.759739 95.031250,51.082012 
	C95.066231,51.140915 95.215454,51.163994 95.215454,51.163994 
	C95.215454,51.163994 95.029724,50.993301 95.008545,50.705612 
	C94.996582,50.225838 95.005783,50.033745 95.014992,49.841656 
z"/>
<path fill="#DEAD81" opacity="1.000000" stroke="none" 
	d="
M68.829727,52.273056 
	C71.992538,51.720451 75.004898,51.446522 78.959267,51.086933 
	C76.502098,53.404247 74.869392,54.944035 73.161858,56.554379 
	C72.097885,56.181648 70.310959,55.555653 68.124847,54.909481 
	C68.043533,54.110115 68.361404,53.330925 68.829727,52.273056 
z"/>
<path fill="#D6A77C" opacity="1.000000" stroke="none" 
	d="
M99.833023,63.640919 
	C99.487801,63.380924 99.123589,62.748917 98.983269,62.030071 
	C99.409454,62.385124 99.611740,62.827015 99.833023,63.640919 
z"/>
<path fill="#131720" opacity="1.000000" stroke="none" 
	d="
M117.225189,186.025284 
	C116.213585,186.806549 115.389313,187.425110 114.264008,188.140396 
	C112.726265,187.119705 111.489548,186.002289 110.252823,184.884872 
	C110.810234,184.789307 111.367638,184.693756 111.925041,184.598190 
	C117.946823,165.436096 114.672844,145.773392 113.195457,126.207451 
	C113.709991,126.165756 114.224525,126.124062 114.739059,126.082367 
	C115.508148,132.169998 116.965698,138.265137 116.899277,144.343643 
	C116.771225,156.063370 115.738411,167.771713 115.208122,179.490540 
	C115.145836,180.866959 115.883896,182.279587 116.866821,183.827713 
	C117.660652,183.995163 117.838593,184.010330 118.022255,184.032928 
	C118.027985,184.040375 118.044777,184.049774 118.046677,184.315063 
	C118.048370,184.757233 118.048164,184.934097 118.047966,185.110947 
	C117.901199,185.416473 117.689384,185.667023 117.225189,186.025284 
M114.479416,184.490982 
	C114.479416,184.490982 114.522514,184.474426 114.479416,184.490982 
z"/>
<path fill="#141720" opacity="1.000000" stroke="none" 
	d="
M63.151161,186.309631 
	C61.825825,185.927322 60.500488,185.545013 59.237408,185.180664 
	C57.880249,189.201981 56.713245,192.659851 55.546242,196.117722 
	C55.182426,196.041519 54.818615,195.965317 54.454800,195.889130 
	C54.298149,195.141418 53.781891,194.227142 54.039375,193.671249 
	C57.327824,186.571442 56.414974,179.166245 56.195347,171.689713 
	C55.823170,159.019943 56.093071,146.331284 56.845802,133.618622 
	C56.973183,134.517197 57.188362,135.413177 57.214863,136.314713 
	C57.658779,151.415924 58.186462,166.516205 58.412369,181.620941 
	C58.456516,184.572876 59.439941,185.866699 62.609993,186.243835 
	C63.083031,186.251404 63.151165,186.309616 63.151161,186.309631 
z"/>
<path fill="#7185B2" opacity="1.000000" stroke="none" 
	d="
M118.016525,184.025482 
	C117.838593,184.010330 117.660652,183.995163 117.220917,183.923218 
	C117.735641,182.861481 118.512146,181.856537 119.897423,181.035278 
	C121.199516,181.189880 121.892830,181.160782 122.586151,181.131683 
	C122.359123,182.041290 122.132095,182.950912 121.609406,183.601624 
	C120.214676,183.570312 119.115601,183.797897 118.016525,184.025482 
z"/>
<path fill="#869CD1" opacity="1.000000" stroke="none" 
	d="
M122.695648,180.972549 
	C121.892830,181.160782 121.199516,181.189880 120.248062,180.975647 
	C120.938820,179.938583 121.887703,179.144897 122.836594,178.351212 
	C123.062141,178.507782 123.287689,178.664352 123.513245,178.820908 
	C123.277206,179.485077 123.041176,180.149246 122.695648,180.972549 
z"/>
<path fill="#141823" opacity="1.000000" stroke="none" 
	d="
M118.022255,184.032928 
	C119.115601,183.797897 120.214676,183.570312 121.296219,183.717224 
	C121.278679,184.091690 120.829681,184.151932 120.215393,184.109543 
	C119.082321,184.061371 118.563553,184.055573 118.044777,184.049774 
	C118.044777,184.049774 118.027985,184.040375 118.022255,184.032928 
z"/>
<path fill="#1D2331" opacity="1.000000" stroke="none" 
	d="
M118.046677,184.315063 
	C118.563553,184.055573 119.082321,184.061371 119.988937,184.114822 
	C119.817955,184.467682 119.259132,184.772888 118.374138,185.094513 
	C118.048164,184.934097 118.048370,184.757233 118.046677,184.315063 
z"/>
<path fill="#141720" opacity="1.000000" stroke="none" 
	d="
M63.038490,186.246490 
	C62.993950,186.241577 63.203720,186.142197 63.203720,186.142197 
	C63.203720,186.142197 62.958061,186.142212 63.054611,186.225922 
	C63.151165,186.309616 63.083031,186.251404 63.038490,186.246490 
z"/>
<path fill="#D6A77C" opacity="1.000000" stroke="none" 
	d="
M92.999847,55.999847 
	C92.993904,62.687267 92.270248,63.594067 87.510681,63.215736 
	C89.097267,60.927223 90.745956,58.549141 92.697479,56.085655 
	C93.000305,56.000248 93.000000,56.000000 92.999847,55.999847 
z"/>
<path fill="#DEAD81" opacity="1.000000" stroke="none" 
	d="
M83.828522,55.887932 
	C85.015038,56.704975 85.883965,57.376930 86.752899,58.048889 
	C86.658768,58.294830 86.564636,58.540771 86.470505,58.786716 
	C83.931763,58.355026 81.393021,57.923332 78.854279,57.491642 
	C78.823776,56.908710 78.793266,56.325775 78.762764,55.742844 
	C80.345490,55.742844 81.928207,55.742844 83.828522,55.887932 
z"/>
<path fill="#DEAD81" opacity="1.000000" stroke="none" 
	d="
M83.017334,63.702339 
	C79.919006,64.035507 77.139526,64.254539 74.360039,64.473572 
	C74.315201,64.025459 74.270355,63.577343 74.225510,63.129230 
	C77.431091,62.783409 80.636673,62.437584 84.175819,62.055775 
	C83.944565,62.477829 83.640366,63.033016 83.017334,63.702339 
z"/>
<path fill="#E4B285" opacity="1.000000" stroke="none" 
	d="
M94.905472,49.575165 
	C95.005783,50.033745 94.996582,50.225838 94.997437,50.710060 
	C95.007500,51.002190 94.996262,51.023109 94.996262,51.023109 
	C94.190773,50.759739 93.385284,50.496372 92.290863,50.095566 
	C92.933273,49.741642 93.864616,49.525158 94.905472,49.575165 
z"/>
<path fill="#DEAD81" opacity="1.000000" stroke="none" 
	d="
M82.144913,50.501656 
	C82.750031,50.268906 83.487221,50.236229 84.224419,50.203556 
	C84.174606,50.619171 84.124794,51.034790 84.074974,51.450409 
	C83.475655,51.200851 82.876328,50.951290 82.144913,50.501656 
z"/>
<path fill="#D6A77C" opacity="1.000000" stroke="none" 
	d="
M97.062592,56.553665 
	C97.241455,56.809078 97.249748,57.064556 97.258034,57.320038 
	C97.114220,57.319748 96.970406,57.319462 96.826591,57.319168 
	C96.848396,57.064022 96.870209,56.808880 97.062592,56.553665 
z"/>
<path fill="#E6B386" opacity="1.000000" stroke="none" 
	d="
M95.018616,50.997746 
	C95.029724,50.993301 95.215454,51.163994 95.215454,51.163994 
	C95.215454,51.163994 95.066231,51.140915 95.031250,51.082012 
	C94.996262,51.023109 95.007500,51.002190 95.018616,50.997746 
z"/>
<path fill="#1D2331" opacity="1.000000" stroke="none" 
	d="
M114.500961,184.482697 
	C114.522514,184.474426 114.479416,184.490982 114.500961,184.482697 
z"/>
</svg>